<!DOCTYPE svg PUBLIC "-//W3C//DTD SVG 1.1//EN" "http://www.w3.org/Graphics/SVG/1.1/DTD/svg11.dtd">
<!-- Uploaded to: SVG Repo, www.svgrepo.com, Transformed by: SVG Repo Mixer Tools -->
<svg width="800px" height="800px" viewBox="-148.27 0 469.537 469.537" xmlns="http://www.w3.org/2000/svg" fill="#000000">
<g id="SVGRepo_bgCarrier" stroke-width="0"/>
<g id="SVGRepo_tracerCarrier" stroke-linecap="round" stroke-linejoin="round"/>
<g id="SVGRepo_iconCarrier">
<defs>
<style>.a{fill:#ffffff;}.b{fill:#7a7473;}.c{fill:#211715;}.d{fill:#65a0d4;}.e{fill:#c6c6c6;}</style>
</defs>
<path class="a" d="M61.574,420.67c-.481-19.483-1.322-78.91-3.057-107.732-1.659-27.567-3.464-61.054-5.1-78.573,19.439,0,71.662.058,88.514.064-.2,3.5-.388,7.026-.388,7.026-1.374,18.408-2.568,47.086-4.037,71.483-1.986,33-2.8,106.105-3.245,113.47-4.933,1.645-26.926,1.411-36.318-.541-.317.056-.626.115-.626.115-11.441,2.187-30.624,2.071-35.556.426C61.706,425.476,61.644,423.492,61.574,420.67Z"/>
<path class="a" d="M125.023,75.126c-2.009,3.76-6.584,10.389-12.186,13.707a59.292,59.292,0,0,0,.408,5.936s-.3,12.161-15.878,12.161S81.438,94.692,81.438,94.692c.225-2.017.365-4.269.408-6.044a28.559,28.559,0,0,1-7.156-6.283A31.421,31.421,0,0,1,68.7,70.677l-1.18-.181a7.792,7.792,0,0,1-3.62-1.632,11.755,11.755,0,0,1-3.037-3.985,18.477,18.477,0,0,1-1.884-9.794,6.163,6.163,0,0,1,.646-2.48,4.362,4.362,0,0,1,3.135-2.085A4.621,4.621,0,0,1,66.457,51.6S62.066,24.879,97.049,24.879c33.234,0,31.386,26.723,31.386,26.723a4.621,4.621,0,0,1,3.695-1.082,4.363,4.363,0,0,1,3.136,2.085,6.162,6.162,0,0,1,.645,2.48,18.477,18.477,0,0,1-1.884,9.794,11.74,11.74,0,0,1-3.036,3.985A7.791,7.791,0,0,1,127.37,70.5s-.225.034-.62.1c-.3,1.11-.63,2.046-.794,2.543A17.013,17.013,0,0,1,125.023,75.126Z"/>
<path class="b" d="M123.358,16.653c4.749,2.606,7.093,7.119,8.624,11.03,2.241,5.726,2.853,15.359.5,22.905-.117-.027-.235-.05-.355-.068a4.621,4.621,0,0,0-3.695,1.082l-3.475-3.783c-.78-1.947-1.362-3.5-2.142-5.444a39.69,39.69,0,0,0-2.23-4.949c-.74-1.208-2.247-.89-3.629-1.133-4.483-.79-3.537-1.777-6.865-4.661-4.512,4.858-9.316,6.859-15.489,8.79a48.315,48.315,0,0,1-13.4,1.9c-4.108,2.377-10.118,4.235-13.808,5.391L66.457,51.6a4.621,4.621,0,0,0-3.695-1.082,3.52,3.52,0,0,0-.4.082l-.393-1.035c-2.3-6.087-2.185-15.94-.338-22.86C63.535,19.588,68,12.68,74.32,9.794l5.67-3.877c5.522-4.775,21.948-4.434,27.583-2.421C112.95,5.416,117.04,8.82,119,12.8Z"/>
<path class="c" d="M129.849,53.016a2.539,2.539,0,0,1,3.615.475,5.29,5.29,0,0,1,.508,2.67,15.738,15.738,0,0,1-.222,3.223c-.7,3.833-2.654,8.42-6.911,9.183a2.017,2.017,0,0,0-1.4,2.46,2.043,2.043,0,0,0,2.46,1.4c6.451-1.156,9.527-8.443,10.013-14.289.248-2.995.013-6.425-2.578-8.366a6.652,6.652,0,0,0-8.316.418,2.016,2.016,0,0,0,0,2.829,2.043,2.043,0,0,0,2.828,0Z"/>
<path class="c" d="M125.323,67.058a17.461,17.461,0,0,1-1.017,4.715c-.091.277-.2.553-.279.833-.037.125-.2.479.023-.033-.142.33-.3.655-.459.976a39.658,39.658,0,0,1-3.414,5.487c-2.981,4.089-7.027,8.419-12.133,9.617-2.5.587-1.444,4.445,1.064,3.857,6.072-1.425,10.784-6.391,14.356-11.227,3.086-4.179,5.644-8.914,5.859-14.225.1-2.574-3.9-2.57-4,0Z"/>
<path class="c" d="M67.872,50.187a6.656,6.656,0,0,0-8.317-.418c-2.593,1.936-2.825,5.376-2.577,8.366.485,5.846,3.562,13.133,10.012,14.289a2.057,2.057,0,0,0,2.461-1.4,2.017,2.017,0,0,0-1.4-2.46c-4.258-.763-6.212-5.351-6.911-9.183a15.506,15.506,0,0,1-.225-3.043,6.061,6.061,0,0,1,.436-2.727,2.523,2.523,0,0,1,3.689-.6,2.057,2.057,0,0,0,2.829,0,2.018,2.018,0,0,0,0-2.829Z"/>
<path class="c" d="M65.779,66.776a35.875,35.875,0,0,0,7.637,17.169c4.3,5.087,9.984,8.768,16.683,9.491a2.013,2.013,0,0,0,2-2,2.046,2.046,0,0,0-2-2c-5.756-.621-10.566-4.3-14.137-8.658-3.521-4.293-5.382-9.659-6.325-15.065a2.018,2.018,0,0,0-2.461-1.4,2.046,2.046,0,0,0-1.4,2.46Z"/>
<path class="c" d="M120.724,11.785C114.649-.193,98.594-1.313,86.964.945A18.207,18.207,0,0,0,78.576,4.5C76.6,6.16,79.444,8.977,81.4,7.331a14.465,14.465,0,0,1,5.747-2.347,40.952,40.952,0,0,1,8.189-.875c4.9-.088,9.971.2,14.394,2.492a16.919,16.919,0,0,1,7.537,7.2c1.164,2.3,4.616.274,3.453-2.019Z"/>
<path class="c" d="M73.311,8.067c-7.2,3.38-11.784,10.974-13.694,18.451A47.217,47.217,0,0,0,58.249,38.65a34.329,34.329,0,0,0,1.8,11.448c.882,2.4,4.75,1.36,3.857-1.063-2.405-6.527-2.146-14.427-.515-21.106S68.9,14.541,75.33,11.521c2.328-1.094.3-4.543-2.019-3.454Z"/>
<path class="c" d="M122.348,18.38c4.641,2.626,7.342,7.682,8.616,12.72a36.382,36.382,0,0,1-.207,18.281c-.686,2.485,3.172,3.545,3.857,1.063a40.448,40.448,0,0,0,.118-20.751c-1.571-5.9-4.939-11.7-10.365-14.767-2.243-1.27-4.261,2.185-2.019,3.454Z"/>
<path class="c" d="M109.628,29.149A28.845,28.845,0,0,1,96.787,37.6,44.586,44.586,0,0,1,81.306,40.33c-2.575-.051-2.575,3.949,0,4A48.153,48.153,0,0,0,98.2,41.336a32.574,32.574,0,0,0,14.256-9.358c1.67-1.943-1.147-4.785-2.828-2.829Z"/>
<path class="c" d="M88.187,35.149a48.507,48.507,0,0,1-10,6.092,73.249,73.249,0,0,1-11.323,4.547c-2.461.735-1.413,4.6,1.063,3.858A79.664,79.664,0,0,0,80.2,44.7a52.3,52.3,0,0,0,10.813-6.717,2.017,2.017,0,0,0,0-2.829,2.042,2.042,0,0,0-2.828,0Z"/>
<path class="c" d="M109.476,33.791a16.967,16.967,0,0,0,5.745,4.065,25.452,25.452,0,0,0,3.5.615c.1.026.312.124.143-.016a2.48,2.48,0,0,1,.283.479c.3.551.56,1.124.812,1.7,1.766,4.022,3.461,8.08,6.1,11.643a2.061,2.061,0,0,0,2.736.717,2.014,2.014,0,0,0,.718-2.736,44.806,44.806,0,0,1-3.519-5.882c-.259-.5-.513-.993-.757-1.5q-.18-.37-.352-.744c-.066-.141-.223-.5-.076-.153-.51-1.206-.97-2.431-1.506-3.626a6.722,6.722,0,0,0-2.286-3.248c-1.13-.694-2.427-.554-3.639-.767-1.944-.342-3.738-2-5.067-3.378-1.791-1.855-4.618.975-2.828,2.829Z"/>
<path class="c" d="M79.793,89.313a45.025,45.025,0,0,1-.431,5.562,41.926,41.926,0,0,1-.695,4.153c-.031.125-.065.25-.1.373-.017.056-.159.47-.055.193s-.06.123-.09.178c-.073.139-.158.265-.24.4.142-.229.109-.117-.039.035-.1.1-.2.2-.3.3-.333.316.25-.1-.187.129-.15.08-.292.176-.444.255-.336.175-.755.321-1.217.513q-.915.378-1.826.767a2.012,2.012,0,0,0-.718,2.736,2.054,2.054,0,0,0,2.736.718c.251-.107.162-.068-.038.016l.445-.187c.291-.122.581-.243.873-.362a14.919,14.919,0,0,0,2.038-.9,6.463,6.463,0,0,0,2.944-3.8,31.423,31.423,0,0,0,.756-4.314,53.6,53.6,0,0,0,.594-6.763,2,2,0,1,0-4,0Z"/>
<path class="c" d="M110.778,89.313a53.674,53.674,0,0,0,.65,7.135,23.051,23.051,0,0,0,.82,4.307,6.492,6.492,0,0,0,3.391,3.728c.615.29,1.26.515,1.892.764q.483.191.965.385c.152.061.3.124.455.184.487.195-.238-.105.02.007a2.066,2.066,0,0,0,2.736-.717,2.015,2.015,0,0,0-.717-2.737c-1.038-.45-2.092-.872-3.15-1.272a5.335,5.335,0,0,1-.834-.415c-.11-.064-.367-.246-.136-.066a3.628,3.628,0,0,1-.382-.351c-.04-.041-.319-.395-.157-.17s-.115-.206-.142-.255c-.062-.112-.118-.227-.171-.343.207.456.015-.012-.011-.1a28.192,28.192,0,0,1-.722-4.017,45.705,45.705,0,0,1-.507-6.071,2,2,0,0,0-4,0Z"/>
<path class="d" d="M138.571,234.434c-20.422-.017-71.009-.069-87.357-.069.47-9.63,3.04-37.327,3.568-42.24L39.523,128.234c.844-5.628,3.188-10.847,5.335-12.172a34.08,34.08,0,0,1,4.794-3.309A269.1,269.1,0,0,1,76.231,99.734a23.126,23.126,0,0,1,4.826-6.629A46.189,46.189,0,0,0,94.391,102.4c.276.125.584.278.673.568h4.265c.089-.29.4-.443.673-.568a46.189,46.189,0,0,0,13.334-9.293,21.841,21.841,0,0,1,3.993,5.089,258.887,258.887,0,0,1,30.363,14.559c1.662.9,4.7,2.21,6.718,5.618,3.851,5.037,15.277,40.673,16.2,49.187a62.271,62.271,0,0,1-.094,14.825c-2.454,12.64-16.6,9.9-20.881,9.753a56.706,56.706,0,0,1-7.176-1.072c.137,3.72.258,7.011.258,7.011.393,10.573,1.63,31.929,1.761,36.364Z"/>
<path class="c" d="M96.223,185.678q.248,22.161.413,44.325c.011,1.407.027,2.813.028,4.22,0,2.573,4,2.578,4,0-.009-11.26-.176-22.522-.287-33.781q-.072-7.383-.154-14.764c-.028-2.573-4.028-2.579-4,0Z"/>
<path class="c" d="M95.285,104.5c.008,12.687.245,25.377.384,38.063.029,2.572,4.029,2.579,4,0-.139-12.686-.376-25.376-.384-38.063,0-2.573-4-2.578-4,0Z"/>
<path class="a" d="M102.8,428.448c-.14-.131-.275-.263-.407-.395v-1.486a162.978,162.978,0,0,0,21.093.9c.05.144.08.226.08.226a29.063,29.063,0,0,0,1.347,4.122,4.1,4.1,0,0,1-1.623,1.887,8.355,8.355,0,0,1-4.278.966A23.816,23.816,0,0,1,102.8,428.448Z"/>
<path class="a" d="M71.929,432.7a3.742,3.742,0,0,1-.509-.884,30,30,0,0,0,1.358-4.229,138.7,138.7,0,0,0,21.159-1.056c-.006.868-.006,1.519-.006,1.519a23.746,23.746,0,0,1-16.62,6.614,8.36,8.36,0,0,1-4.278-.966A4.118,4.118,0,0,1,71.929,432.7Z"/>
<path class="b" d="M51.044,463.071c-.116-.152-.225-.309-.329-.47a8.81,8.81,0,0,1-.582-7.38,24.157,24.157,0,0,1,3.787-6.608q5.481-7.486,11.587-14.49c1.587-1.819,3.38-3.716,5.753-4.164a3.568,3.568,0,0,0,1.773,3.742,8.36,8.36,0,0,0,4.278.966,23.746,23.746,0,0,0,16.62-6.614c-.028,5,.022,6.663,0,11.665a10.477,10.477,0,0,1-.438,3.606c-1.028,2.78-4.076,4.119-6.521,5.793-6.364,4.354-9.715,12.3-16.383,16.17a17.213,17.213,0,0,1-15.913.571A10.041,10.041,0,0,1,51.044,463.071Z"/>
<path class="b" d="M145.278,463.071q.174-.228.329-.47a8.806,8.806,0,0,0,.583-7.38,24.183,24.183,0,0,0-3.787-6.608q-5.482-7.486-11.588-14.49c-1.586-1.819-3.38-3.716-5.752-4.164a3.567,3.567,0,0,1-1.774,3.742,8.355,8.355,0,0,1-4.278.966,23.741,23.741,0,0,1-16.619-6.614c.027,5-.023,6.663,0,11.665a10.477,10.477,0,0,0,.438,3.606c1.028,2.78,4.076,4.119,6.522,5.793,6.363,4.354,9.714,12.3,16.382,16.17a17.214,17.214,0,0,0,15.914.571A10.037,10.037,0,0,0,145.278,463.071Z"/>
<path class="c" d="M51.214,236.365q17.915,0,35.829.022l42.5.035q7.494,0,14.989.008c2.574,0,2.579-4,0-4q-16.254,0-32.51-.022-21.714-.018-43.429-.035-8.691-.006-17.381-.008c-2.574,0-2.579,4,0,4Z"/>
<path class="c" d="M70.86,427.03a31.039,31.039,0,0,1-1.4,4.333,2.007,2.007,0,0,0,.2,1.542,2,2,0,0,0,2.736.717l.405-.313a1.99,1.99,0,0,0,.514-.882,31.1,31.1,0,0,0,1.4-4.334,2.09,2.09,0,0,0-.2-1.541,2,2,0,0,0-3.656.478Z"/>
<path class="c" d="M90.321,427.011c.007,1.058.018,2.116.026,3.174a2.065,2.065,0,0,0,.585,1.414,2,2,0,0,0,2.829,0,2.069,2.069,0,0,0,.586-1.414c-.008-1.058-.019-2.116-.026-3.174a2.071,2.071,0,0,0-.586-1.414,2,2,0,0,0-2.828,0,2.066,2.066,0,0,0-.586,1.414Z"/>
<path class="c" d="M121.637,428.224a31.1,31.1,0,0,0,1.4,4.292,2.238,2.238,0,0,0,.919,1.195,2,2,0,0,0,2.736-.717,1.933,1.933,0,0,0,.2-1.541,31.117,31.117,0,0,1-1.4-4.293,2,2,0,0,0-3.857,1.064Z"/>
<path class="c" d="M102,426.863l-.023,3.3a2.057,2.057,0,0,0,.586,1.414,2,2,0,0,0,2.828,0,2.089,2.089,0,0,0,.586-1.414l.023-3.3a2.064,2.064,0,0,0-.586-1.415,2,2,0,0,0-2.829,0,2.091,2.091,0,0,0-.585,1.415Z"/>
<path class="c" d="M51.431,234.451c1.411,15.274,2.249,30.6,3.162,45.915.893,14.986,1.906,29.973,2.547,44.973.557,13.044.916,26.1,1.237,39.147q.468,19.059.819,38.119c.15,7.591.213,15.193.518,22.781.014.341.028.682.049,1.022a2.075,2.075,0,0,0,1.468,1.929,28.816,28.816,0,0,0,6.56,1.006c3.095.241,6.2.307,9.309.289a115.96,115.96,0,0,0,20.751-1.721c2.527-.476,1.457-4.332-1.063-3.857A110.015,110.015,0,0,1,77.1,425.632c-3.011.017-6.027-.045-9.031-.268a22.886,22.886,0,0,1-5.775-.885l1.469,1.929c-.392-6.6-.358-13.235-.489-19.838q-.369-18.579-.779-37.157c-.312-13.274-.662-26.547-1.181-39.814-.556-14.185-1.488-28.352-2.323-42.523-.95-16.1-1.843-32.217-3.181-48.293q-.18-2.166-.379-4.332a2.054,2.054,0,0,0-2-2,2.014,2.014,0,0,0-2,2Z"/>
<path class="c" d="M97.413,427.8a96.483,96.483,0,0,0,15.388,1.557,138.315,138.315,0,0,0,16.11-.134,25.715,25.715,0,0,0,5.884-.881,2.075,2.075,0,0,0,1.468-1.929c.365-6.149.339-12.337.462-18.494q.348-17.456.723-34.911c.293-12.842.621-25.683,1.081-38.519.461-12.856,1.249-25.688,1.936-38.532.882-16.5,1.621-33,2.726-49.487q.168-2.505.354-5.01c.191-2.568-3.81-2.555-4,0-1.189,16-1.9,32.032-2.739,48.051-.71,13.558-1.591,27.107-2.117,40.674-.491,12.692-.83,25.389-1.131,38.086q-.428,18.015-.761,36.032c-.14,7.041-.2,14.092-.487,21.129-.013.327-.027.654-.047.981l1.468-1.929a12.823,12.823,0,0,1-1.907.429c-.632.1-1.358.179-2.307.261-2.358.2-4.726.282-7.091.316a164.83,164.83,0,0,1-16.542-.561,64.638,64.638,0,0,1-7.407-.986c-2.513-.514-3.588,3.341-1.064,3.857Z"/>
<path class="c" d="M96.161,266.423c-.449,4.916-.4,9.9-.435,14.828-.056,7.257-.026,14.513.018,21.77.062,10.171.172,20.341.157,30.513q-.027,17.024-.066,34.046Q95.8,386.54,95.8,405.5q0,6.847.033,13.695c.012,2.149-.075,4.337.089,6.482a2.333,2.333,0,0,0,1.015,1.917,2.012,2.012,0,0,0,2.737-.718,2.051,2.051,0,0,0-.718-2.736l0,0,.718.718c.179.332.251,1.395.238.561,0-.338-.02-.676-.026-1.015-.023-1.223-.032-2.447-.041-3.671-.03-4.218-.036-8.437-.041-12.655q-.019-18.437.028-36.874.03-17.516.068-35.03c.017-9.426-.051-18.849-.119-28.274-.094-12.976-.424-26.023.218-38.99.041-.829.091-1.658.166-2.485a2.014,2.014,0,0,0-2-2,2.043,2.043,0,0,0-2,2Z"/>
<path class="c" d="M118.423,100.775c6.638,2.7,13.127,5.735,19.49,9.03,3,1.555,5.969,3.181,8.953,4.773,2.326,1.241,4.4,2.495,5.817,4.8,1.347,2.189,4.808.182,3.453-2.019a16.553,16.553,0,0,0-6.645-5.918c-3.07-1.623-6.109-3.3-9.191-4.9q-10.187-5.291-20.814-9.623a2.012,2.012,0,0,0-2.46,1.4,2.049,2.049,0,0,0,1.4,2.46Z"/>
<path class="c" d="M146.476,234.519c-.354-12.242-1.32-24.467-1.772-36.706l-.249-6.749c-.094-2.566-4.094-2.578-4,0,.442,12.006,1.065,24,1.677,36,.127,2.485.272,4.971.344,7.458.074,2.568,4.075,2.579,4,0Z"/>
<path class="c" d="M147.923,124.989c-1.114,6.944-2.553,13.832-3.556,20.794-.9,6.242-1.365,12.532-1.823,18.819-.188,2.568,3.813,2.556,4,0,.444-6.087.863-12.191,1.749-18.233,1-6.8,2.4-13.532,3.487-20.317a2.062,2.062,0,0,0-1.4-2.46,2.015,2.015,0,0,0-2.46,1.4Z"/>
<path class="c" d="M52.782,192.125c-1.2,11.184-2.133,22.409-2.992,33.623-.22,2.87-.434,5.742-.576,8.617-.128,2.573,3.872,2.566,4,0,.6-12.039,1.827-24.066,2.961-36.064.2-2.059.387-4.119.607-6.176a2.013,2.013,0,0,0-2-2,2.045,2.045,0,0,0-2,2Z"/>
<path class="c" d="M76.152,97.617c-8.29,3.447-16.328,7.389-24.235,11.637a54.781,54.781,0,0,0-5.926,3.454,18.521,18.521,0,0,0-3.95,3.31c-2.575,3.264-3.811,7.646-4.447,11.684a2.064,2.064,0,0,0,1.4,2.461,2.016,2.016,0,0,0,2.461-1.4c.541-3.437,1.447-7.617,3.767-10.353a18.6,18.6,0,0,1,3.915-3.018c1.775-1.152,3.7-2.1,5.561-3.094,7.35-3.934,14.82-7.626,22.52-10.826a2.067,2.067,0,0,0,1.4-2.461,2.012,2.012,0,0,0-2.46-1.4Z"/>
<path class="a" d="M107.733,113.941c4.282-4.255,7.086-9.409,10.249-14.557a22.818,22.818,0,0,0-4.646-6.279A46.189,46.189,0,0,1,100,102.4c-.276.125-.584.278-.673.568a1.072,1.072,0,0,0,.154.753,43.086,43.086,0,0,0,2.758,3.561C104.117,109.576,106.473,112.39,107.733,113.941Z"/>
<path class="a" d="M86.66,113.941c-4.282-4.255-7.086-9.409-10.249-14.557a22.818,22.818,0,0,1,4.646-6.279A46.189,46.189,0,0,0,94.391,102.4c.276.125.584.278.673.568a1.072,1.072,0,0,1-.154.753,43.086,43.086,0,0,1-2.758,3.561C90.276,109.576,87.92,112.39,86.66,113.941Z"/>
<path class="c" d="M109.147,115.355a59.49,59.49,0,0,0,8.371-11.348c.6-.994,1.2-1.991,1.8-2.983a2.892,2.892,0,0,0,.623-1.906,5.216,5.216,0,0,0-.816-1.8,24.345,24.345,0,0,0-4.38-5.623,2.036,2.036,0,0,0-2.829,0,43.431,43.431,0,0,1-7.169,5.811c-1.259.816-2.556,1.574-3.89,2.262-1.265.654-3.034,1.117-3.461,2.67a3.629,3.629,0,0,0,.946,3.142c.866,1.149,1.779,2.263,2.69,3.376,1.753,2.14,3.536,4.257,5.282,6.4a2.012,2.012,0,0,0,2.828,0,2.046,2.046,0,0,0,0-2.828c-1.457-1.791-2.941-3.561-4.41-5.344-.827-1-1.653-2.007-2.463-3.025-.228-.287-.459-.573-.675-.869-.095-.13-.184-.287-.288-.409-.178-.208.044-.247.018.086l-.273,1.009q-.5.41-.045.15l.311-.142c.312-.148.625-.3.934-.449q.95-.471,1.875-.987,1.908-1.065,3.71-2.3a48.479,48.479,0,0,0,6.909-5.722h-2.829a21.827,21.827,0,0,1,4.334,5.873V98.374c-3.018,4.924-5.83,10.026-9.936,14.153C104.5,114.354,107.329,117.183,109.147,115.355Z"/>
<path class="c" d="M88.074,112.527c-4.106-4.127-6.918-9.229-9.936-14.153v2.019a21.827,21.827,0,0,1,4.334-5.873H79.643a48.535,48.535,0,0,0,6.909,5.722q1.8,1.237,3.709,2.3.851.472,1.719.909.465.233.935.454.232.11.467.215.452.26-.045-.15l-.273-1.009c-.022-.285.216-.317.018-.086-.086.1-.154.223-.231.331-.233.324-.484.635-.732.947-.81,1.017-1.636,2.022-2.463,3.025-1.469,1.783-2.953,3.553-4.411,5.344a2.059,2.059,0,0,0,0,2.828,2.015,2.015,0,0,0,2.829,0c1.711-2.1,3.456-4.177,5.175-6.273.922-1.125,1.843-2.253,2.725-3.411a3.72,3.72,0,0,0,1.018-3.237c-.415-1.508-2.073-1.96-3.305-2.59q-2-1.023-3.892-2.242a43.464,43.464,0,0,1-7.323-5.911,2.038,2.038,0,0,0-2.829,0,24.27,24.27,0,0,0-4.293,5.472,7.692,7.692,0,0,0-.868,1.689,2.681,2.681,0,0,0,.587,2.172c.605.992,1.2,1.989,1.806,2.983a59.527,59.527,0,0,0,8.37,11.348C87.064,117.183,89.892,114.355,88.074,112.527Z"/>
<path class="c" d="M52.771,462.061c-1.764-2.411-1.3-5.449-.01-7.975a55.55,55.55,0,0,1,5.739-8.272q3.172-4.14,6.559-8.112c1.828-2.153,3.807-5.162,6.732-5.814l-2.46-2.46A5.827,5.827,0,0,0,73.215,436c2.632,1.032,5.78.761,8.51.324a25.456,25.456,0,0,0,13.62-6.852l-3.414-1.414c-.022,4.261.164,8.554-.021,12.81-.093,2.138-1.179,3.407-2.893,4.565a57.464,57.464,0,0,0-5.2,3.61c-6.048,5.129-9.633,13.856-17.855,16-4.468,1.166-10.438.41-13.5-3.383a2.014,2.014,0,0,0-2.828,0,2.048,2.048,0,0,0,0,2.829c3.11,3.849,8.921,5.341,13.677,5.006a20.359,20.359,0,0,0,12.98-6.144c3.2-3.157,5.678-6.96,8.876-10.119a31.033,31.033,0,0,1,5.264-3.946,11.806,11.806,0,0,0,4.659-4.621c1.26-2.721.856-6.043.849-8.965-.006-2.548-.017-5.1,0-7.643a2.023,2.023,0,0,0-3.415-1.414,21.432,21.432,0,0,1-9.4,5.293,20.489,20.489,0,0,1-6.213.724c-1.138-.045-4.061-.4-3.719-2.165a2.027,2.027,0,0,0-2.46-2.46c-3.578.8-5.931,3.833-8.189,6.48q-4.026,4.72-7.782,9.662c-4.04,5.3-10.39,13.142-5.44,19.907a2.061,2.061,0,0,0,2.737.718A2.015,2.015,0,0,0,52.771,462.061Z"/>
<path class="c" d="M147.005,464.08c4.95-6.764-1.4-14.61-5.439-19.907q-3.764-4.932-7.783-9.662c-2.258-2.648-4.61-5.682-8.189-6.48a2.027,2.027,0,0,0-2.46,2.46c.343,1.766-2.586,2.12-3.718,2.165a20.485,20.485,0,0,1-6.213-.724,21.425,21.425,0,0,1-9.4-5.293,2.022,2.022,0,0,0-3.414,1.414c.011,2.269.006,4.537,0,6.806a48.173,48.173,0,0,0,.189,7.675c.812,5.082,5.969,6.587,9.377,9.571,3.39,2.968,5.9,6.763,8.938,10.058,3.234,3.5,7.2,6.272,11.985,7.069,5.371.895,12.207-.283,15.813-4.747a2.06,2.06,0,0,0,0-2.829,2.015,2.015,0,0,0-2.828,0c-2.682,3.32-7.738,4.32-11.787,3.739-4.287-.614-7.624-3.079-10.479-6.2-2.743-3-5.056-6.374-8-9.182a30.273,30.273,0,0,0-4.906-3.7c-1.437-.9-3.229-1.881-3.929-3.522a11.018,11.018,0,0,1-.371-4.222q0-1.773,0-3.548c.007-2.323.014-4.647,0-6.97l-3.414,1.414a25.443,25.443,0,0,0,13.619,6.852c2.665.427,5.737.7,8.324-.252a5.867,5.867,0,0,0,4.07-6.639l-2.46,2.46c2.863.638,4.786,3.526,6.578,5.633q3.457,4.062,6.714,8.293a57.644,57.644,0,0,1,5.642,8.083c1.343,2.572,1.9,5.682.086,8.164a2.016,2.016,0,0,0,.718,2.737A2.047,2.047,0,0,0,147.005,464.08Z"/>
<path class="e" d="M2.1,127.857a2.009,2.009,0,0,1,1.965-1.331c15.5.548,60.383,2.756,72.348,3.346a2.925,2.925,0,0,1,2.743,2.449c1.776,10.773,8.278,48.189,10,57.916l.146.826a6.957,6.957,0,0,1-.976.437,8.762,8.762,0,0,1-2.888.4c-24.921-1.434-46.689-3.7-71.465-5.167a3.08,3.08,0,0,1-2.861-2.558c-2.042-12.1-7.3-44.011-9.1-55.322A2.009,2.009,0,0,1,2.1,127.857Z"/>
<path class="e" d="M87.488,180.712c-.5-2.851-1.057-6.059-1.645-9.444l.913.186,4.4.895c2.55.565,12.73,3.2,16.7,4.648l-1.109.9c-5.066,4.1-14.333,11.076-16.524,12.6a8.006,8.006,0,0,1-.92.563l-.146-.824C88.789,188.154,88.2,184.8,87.488,180.712Z"/>
<path class="a" d="M91.253,172.307c2.537.563,12.676,3.191,16.605,4.623,1.194-3.822,2.906-9.251,4.149-13.31q-2.517-.84-5.068-1.573l-4.718-8.172a9.546,9.546,0,0,0-3.121-3.73,9.535,9.535,0,0,0-4.686-.887,39.509,39.509,0,0,0-7.03.214l-5.279.65,3.778,21.222Z"/>
<path class="c" d="M112.693,161.838c-1.736-.589-3.462-1.2-5.222-1.719l1.195.919-3.707-6.421c-1.045-1.809-2.019-3.858-3.6-5.272a9.037,9.037,0,0,0-5.822-2.055,56.457,56.457,0,0,0-6.633.083c-2.555.171-2.574,4.173,0,4a44.55,44.55,0,0,1,7.195-.046c2.314.222,3.306,1.678,4.4,3.558q2.029,3.5,4.044,7a4.726,4.726,0,0,0,1.392,1.885,9.692,9.692,0,0,0,1.916.64c1.268.405,2.523.853,3.783,1.281,2.443.83,3.492-3.032,1.064-3.857Z"/>
<path class="c" d="M152.683,119.38c1.906,2.538,2.805,5.507,3.89,8.3,1.872,4.826,3.551,9.728,5.152,14.65,1.655,5.088,3.221,10.208,4.626,15.371.555,2.041,1.087,4.089,1.552,6.152.181.8.352,1.609.5,2.419.057.313.105.628.159.942.079.462,0,.008.01.046.035.295.066.591.1.887a63.011,63.011,0,0,1,.136,11.192c-.219,2.838-.668,5.674-2.695,7.822-2.879,3.049-7.286,3.425-11.337,3.3-1.619-.049-3.229-.226-4.845-.316-.562-.031-1.119-.063-1.678-.128-.141-.016-.281-.034-.421-.051-.354-.044.33.05-.154-.022-.424-.064-.849-.127-1.273-.2-4.431-.725-8.825-1.708-13.2-2.722-5.018-1.164-10.018-2.414-14.981-3.795-2.037-.567-4.069-1.155-6.082-1.8-.779-.25-1.556-.509-2.325-.789-.314-.114-.625-.238-.938-.356-.254-.095-.264-.11.015.012-.135-.059-.272-.116-.405-.18-.19-.092-.376-.191-.564-.287-.392-.2-.169-.122,0,.029l.515,1.946c2.223-7.593,5.018-15.044,6.983-22.71l-2.46,1.4c9,2.158,18.094,3.959,27.067,6.246a58.171,58.171,0,0,0,11.171,1.306c2.573.135,2.566-3.865,0-4-1.963-.1-3.918-.314-5.872-.525a26.356,26.356,0,0,1-3.824-.532c-1.976-.514-3.965-.976-5.953-1.44-5.135-1.2-10.281-2.348-15.424-3.511-2.036-.46-4.073-.915-6.1-1.4a2.032,2.032,0,0,0-2.46,1.4c-1.965,7.666-4.76,15.117-6.984,22.709a1.982,1.982,0,0,0,.515,1.946,9.9,9.9,0,0,0,3.237,1.655c1.725.652,3.492,1.194,5.259,1.721,4.908,1.463,9.873,2.739,14.85,3.944,7.949,1.925,15.888,3.736,24.053,4.332,4.5.328,9.312.217,13.371-2a12.576,12.576,0,0,0,5.3-5.579c1.654-3.469,1.759-7.442,1.831-11.224.193-10.169-2.892-19.85-5.879-29.461-1.66-5.338-3.421-10.648-5.343-15.9a84.485,84.485,0,0,0-4.8-11.482,10.9,10.9,0,0,0-.835-1.34,2.063,2.063,0,0,0-2.736-.717,2.013,2.013,0,0,0-.717,2.736Z"/>
<path class="c" d="M89.346,192.515c2-1.761,1.456-4.421,1.053-6.718q-.5-2.816-.986-5.633-1.248-7.15-2.488-14.3-2.472-14.255-4.906-28.515-.405-2.388-.8-4.778a5.179,5.179,0,0,0-5-4.705c-3.058-.21-6.13-.3-9.193-.451q-14.193-.695-28.389-1.367c-9.464-.446-18.929-.889-28.4-1.279q-2.452-.1-4.9-.193A6.134,6.134,0,0,0,2.1,125a4.023,4.023,0,0,0-2.09,3.845c.131,1.773.558,3.573.842,5.327q.519,3.2,1.041,6.406,2.5,15.341,5.047,30.674,1.035,6.24,2.081,12.479c.463,2.754,2.04,4.718,4.953,5,3.851.369,7.742.482,11.6.753,14.789,1.036,29.557,2.341,44.344,3.4q5.764.414,11.532.773c3.465.214,6.76.622,9.78-1.433,3.73-2.54,7.282-5.39,10.853-8.144,2.039-1.573,4.073-3.154,6.076-4.773a2.012,2.012,0,0,0,0-2.828,2.047,2.047,0,0,0-2.829,0c-3.952,3.193-8,6.271-12.067,9.316-1.309.979-2.611,1.974-3.954,2.906-2.632,1.827-5.816,1.084-8.834.9-14.16-.887-28.3-2.093-42.441-3.19-7.2-.559-14.4-1.085-21.612-1.53-.966-.06-2.764.258-3.276-.8a8.957,8.957,0,0,1-.409-2.237q-.47-2.79-.933-5.582-2.418-14.51-4.794-29.025-1.077-6.57-2.144-13.143-.4-2.479-.8-4.959c-.032-.2,0-.707-.122-.535.069-.093.153-.075.466-.057.762.045,1.527.056,2.29.086,8.371.324,16.741.713,25.11,1.1q14.172.658,28.343,1.351,5.567.27,11.134.544l4.127.2c.549.027,1.246-.067,1.617.432a5.54,5.54,0,0,1,.437,2.056c2.855,17.107,5.853,34.19,8.846,51.273.181,1.033,1.032,3.371.2,4.1-1.938,1.7.9,4.522,2.828,2.828Z"/>
<path class="a" d="M27.977,171.663a3.663,3.663,0,0,0-4.11-2.777,2.833,2.833,0,0,0-2.7,2.546c-.235,1.922.2,4.123.913,7.705.549,2.747,1.268,5.93,2.044,8.538a8.27,8.27,0,0,0,6.332,4.98c1.856.337,13.473,1.724,18.723,1.768,4.531-.171,11.305.163,11.423-3.7-1.667-.466-3.123-1.275-3.771-1.39a7.817,7.817,0,0,1-.491-1.383c-.61-2.405-2.285-6.816-4.073-7.859-1.435-.837-3.944-.957-4.75.567,0,0-.226.428-.573,1.088-.188-.676-.377-1.379-.568-2.125a61.779,61.779,0,0,0-2.558-7.521,4.2,4.2,0,0,0-2.935-2.541c-1.552-.5-3.941.194-4.261,1.75l-.351,1.7-.742-3.123c-.831-3.5-3.54-4.558-5.572-4.079-2.285.538-2.844,2.433-2.1,5.282"/>
<path class="c" d="M49.244,181.668c.173-.3-.26.245.129-.15-.446.453.261-.092-.04.047-.278.128.26-.059.323-.076q.336-.06-.077.007c.1-.008.208-.013.312-.013.159,0,.316.012.475.021-.525-.029.129.035.25.066.152.04.3.092.447.139.211.081.19.072-.061-.026.087.042.172.088.256.136.066.039.129.08.191.125-.228-.182-.283-.223-.168-.123a3.866,3.866,0,0,0,.329.323c.076.083.433.584.145.161.089.131.182.258.268.39a15.862,15.862,0,0,1,1.184,2.24c.037.083.074.167.11.251q-.124-.3.009.028c.087.225.177.448.262.674q.211.569.4,1.145c.24.737.4,1.506.666,2.233a3.105,3.105,0,0,0,1.167,1.8,8.709,8.709,0,0,0,1.191.435c.967.383,1.909.809,2.908,1.113a2.02,2.02,0,0,0,2.46-1.4,2.042,2.042,0,0,0-1.4-2.46c-1.219-.371-2.378-1.081-3.62-1.347l1.2.919q-.132-.3.015.041c-.044-.111-.085-.223-.124-.336-.069-.2-.125-.405-.18-.61-.089-.33-.178-.659-.277-.985q-.327-1.073-.741-2.114A17.626,17.626,0,0,0,54.76,179.7c-2.085-2.607-7.095-3.3-8.97-.051a2,2,0,1,0,3.454,2.018Z"/>
<path class="c" d="M50.271,186.189a116.881,116.881,0,0,0-4.486-14.527,6.511,6.511,0,0,0-5.226-4.2c-2.38-.315-5.2.809-5.866,3.312s3.2,3.554,3.858,1.063c.094-.36,0-.05-.1.055.057-.06.453-.358.193-.19a1.334,1.334,0,0,1,.691-.267c.547-.125-.234-.027.324-.038.021,0,.642.047.3-.01a3.319,3.319,0,0,1,.869.285,1.75,1.75,0,0,1,.773.552c.24.25-.015-.052.09.119.084.134.16.271.235.411.2.371-.044-.127.115.254.087.208.168.419.25.629q.254.647.493,1.3c1.472,4.007,2.521,8.191,3.624,12.312.666,2.484,4.525,1.43,3.858-1.064Z"/>
<path class="c" d="M41.663,185.76c-1.222-4.687-2.449-9.373-3.631-14.07-.548-2.179-.95-4.453-2.617-6.1a6.383,6.383,0,0,0-6.469-1.559c-3.345,1.18-3.774,4.54-3.021,7.6.614,2.5,4.473,1.441,3.857-1.063a5.355,5.355,0,0,1-.22-1.984.871.871,0,0,1,.222-.527,2.026,2.026,0,0,1,1.6-.3,2.853,2.853,0,0,1,1.916,1.721A15.577,15.577,0,0,1,34,172.039c1.232,4.938,2.526,9.86,3.81,14.785.649,2.489,4.508,1.433,3.857-1.064Z"/>
<path class="c" d="M22.4,188.685a10.519,10.519,0,0,0,7.707,5.929c2.274.377,4.579.616,6.87.867,6.008.659,12.127,1.327,18.169.676,3.372-.363,7.083-1.42,7.455-5.349a2.014,2.014,0,0,0-2-2,2.043,2.043,0,0,0-2,2,.54.54,0,0,1-.19.334,2.857,2.857,0,0,1-.955.526,13.162,13.162,0,0,1-3.575.595,61.341,61.341,0,0,1-7.537.052c-2.711-.159-5.416-.416-8.115-.7q-1.925-.2-3.846-.432-.8-.1-1.593-.2c-.21-.027-.421-.054-.631-.083.344.047-.162-.022-.271-.038a9.288,9.288,0,0,1-3.021-.8,7.283,7.283,0,0,1-3.013-3.4c-1.16-2.3-4.612-.276-3.454,2.019Z"/>
<path class="c" d="M33.488,184.726q-1.134-4.08-2.213-8.175c-.328-1.241-.652-2.482-.963-3.727a12.847,12.847,0,0,0-.944-3.06,5.788,5.788,0,0,0-8.5-1.715c-2.394,1.969-1.816,5.5-1.366,8.182a102.509,102.509,0,0,0,2.7,11.976c.726,2.464,4.587,1.415,3.857-1.063-.877-2.981-1.542-6.019-2.149-9.064-.253-1.272-.561-2.733-.7-3.9a14.088,14.088,0,0,1-.1-1.55,4.136,4.136,0,0,1,.088-1.148c.116-.319.166-.4.491-.529a2.423,2.423,0,0,1,1.147-.034,1.559,1.559,0,0,1,1.219,1.279c.447,1.9.938,3.787,1.437,5.673q1.049,3.968,2.146,7.921c.688,2.477,4.548,1.425,3.857-1.063Z"/>
<path class="c" d="M45.794,156.417a2.677,2.677,0,0,0,.321.022c-.47.036-.369-.065-.16-.018.192.043.383.081.572.141.068.022.134.048.2.069.381.12-.436-.222-.083-.036a6.224,6.224,0,0,1,.556.317c.051.033.35.242.056.032s-.007,0,.043.05a4.132,4.132,0,0,0,.37.388l-.179-.235c.043.058.084.117.124.178.051.076.1.154.143.234a1.3,1.3,0,0,0,.127.246c-.124-.308-.147-.363-.071-.166.021.053.039.108.056.162.063.2.067.448.149.632-.146-.332-.033-.363-.031-.163,0,.129.012.256.009.385,0,.093-.02.194-.014.287.019.263.108-.527.022-.153-.046.2-.125.392-.165.587.1-.476.148-.325.042-.127-.029.055-.06.11-.093.163-.049.079-.108.151-.156.23.289-.474.231-.277.107-.16s-.253.223-.365.341c.008-.008.434-.3.185-.15-.1.063-.2.132-.311.192-.172.095-.665.238-.023.035-.148.047-.291.109-.44.154s-.3.083-.455.115c-.092.019-.184.034-.277.051-.361.067.505-.049.161-.023a7.84,7.84,0,0,1-1.005.025c-.146-.008-.291-.027-.436-.038.766.061.053,0-.164-.068-.089-.026-.178-.069-.267-.091-.25-.062.453.239.117.042a2.294,2.294,0,0,0-.48-.289l.226.178c-.059-.047-.116-.095-.172-.145s-.136-.127-.2-.195-.123-.172-.189-.208q.291.389.107.136c-.032-.046-.064-.093-.094-.141-.051-.08-.1-.161-.144-.245-.083-.154-.139-.454.009.064-.053-.186-.128-.363-.172-.553-.015-.063-.068-.447-.027-.083s0-.032,0-.091c-.006-.122-.005-.245,0-.367l.008-.124q.033-.327-.024.156a3.519,3.519,0,0,0,.193-.711c-.107.477-.106.238-.009.06.055-.1.118-.191.176-.287.207-.345-.322.338-.04.055.077-.078.148-.161.229-.237s.176-.137.247-.215c-.347.383-.206.159-.049.059.182-.116.4-.188.576-.31-.394.274-.28.113-.073.042.1-.035.206-.067.31-.1s.209-.054.314-.075c.07-.015.14-.027.21-.039q-.51.063-.27.037c.224-.007.445-.031.67-.027a2.018,2.018,0,0,0,2-2,2.039,2.039,0,0,0-2-2,6.34,6.34,0,0,0-6.127,3.914,5.941,5.941,0,0,0,2.627,7.11,7.5,7.5,0,0,0,6.56.079,5.379,5.379,0,0,0,2.39-2.089,5.872,5.872,0,0,0,.641-4,6.265,6.265,0,0,0-6.091-5.013,2.015,2.015,0,0,0-2,2A2.042,2.042,0,0,0,45.794,156.417Z"/>
<path class="c" d="M108.389,175a149.375,149.375,0,0,0-20.974-5.512,2.05,2.05,0,0,0-2.461,1.4,2.02,2.02,0,0,0,1.4,2.46,149.388,149.388,0,0,1,20.975,5.512,2.018,2.018,0,0,0,2.46-1.4,2.04,2.04,0,0,0-1.4-2.46Z"/>
<path class="c" d="M65.392,47.717c-.013.161-.029.321-.05.481l.071-.532a14.4,14.4,0,0,1-.961,3.2,2.012,2.012,0,0,0,.2,1.541,2,2,0,0,0,2.736.718l.405-.313a2,2,0,0,0,.514-.882c.243-.631.492-1.261.683-1.909a11.361,11.361,0,0,0,.4-2.3,2.009,2.009,0,0,0-.585-1.414,2,2,0,0,0-2.829,0l-.312.405a2,2,0,0,0-.274,1.009Z"/>
<path class="c" d="M109.819,65.279c4.809.14,10.161-.1,13.084-4.53,2.2-3.34,2.545-8.983-.608-11.876-.9-.824-2.578-1.079-3.737-1.351a31.554,31.554,0,0,0-4.031-.657,27.574,27.574,0,0,0-7.826.359c-2.251.422-4.791.925-6.088,3a9.031,9.031,0,0,0-1.184,5.434,10.906,10.906,0,0,0,3.292,7.052,11.316,11.316,0,0,0,7.1,2.568c2.574.111,2.569-3.889,0-4a6.269,6.269,0,0,1-5.876-8.824c.43-.749,1.747-.913,2.714-1.14a22.354,22.354,0,0,1,4.687-.58,25.862,25.862,0,0,1,9.005,1.481l-.883-.515c1.78,1.865,1.315,5.323-.172,7.255-2.135,2.776-6.381,2.413-9.475,2.323C107.244,61.2,107.246,65.2,109.819,65.279Z"/>
<path class="c" d="M75.269,52.216A25.26,25.26,0,0,1,86.9,50.922a22.422,22.422,0,0,1,2.8.578c.628.169,1.542.3,1.883.751a5.13,5.13,0,0,1,.651,2.78,7.23,7.23,0,0,1-1.543,4.223A6.1,6.1,0,0,1,86.778,61.2a23.363,23.363,0,0,1-5.378.049,7.551,7.551,0,0,1-4.477-1.654c-1.986-1.835-2.754-5.816-.772-7.893,1.778-1.862-1.046-4.695-2.828-2.828-2.978,3.119-2.93,8.359-.609,11.876,2.833,4.293,8.025,4.688,12.722,4.541A12.054,12.054,0,0,0,91.9,63.478a10.234,10.234,0,0,0,3.916-5.714A10.065,10.065,0,0,0,95.788,52a7.019,7.019,0,0,0-1.383-2.574,5.973,5.973,0,0,0-2.92-1.572,28.226,28.226,0,0,0-17.28.508c-2.418.835-1.379,4.7,1.064,3.857Z"/>
<path class="c" d="M95.987,56.247c.049-.025.1-.048.149-.071l-.478.2a5.122,5.122,0,0,1,1.279-.324l-.532.072a10.64,10.64,0,0,1,2.739,0l-.532-.071a6.1,6.1,0,0,1,1.5.367l-.478-.2.051.022a2.188,2.188,0,0,0,1.541.2,2,2,0,0,0,1.4-2.46,1.929,1.929,0,0,0-.919-1.2,7.325,7.325,0,0,0-1.769-.553,13.969,13.969,0,0,0-2.13-.2,8.427,8.427,0,0,0-3.838.752,2.012,2.012,0,0,0-.718,2.736,2.051,2.051,0,0,0,2.737.718Z"/>
<path class="c" d="M125.093,54.75l.144-.063-.478.2a13.242,13.242,0,0,1,2.632-.832,2.235,2.235,0,0,0,1.2-.919,1.486,1.486,0,0,0,.237-.743,1.506,1.506,0,0,0-.036-.8,2.017,2.017,0,0,0-.919-1.2l-.478-.2a2.018,2.018,0,0,0-1.063,0,14.986,14.986,0,0,0-3.254,1.1,1.924,1.924,0,0,0-.954,1.993,1.486,1.486,0,0,0,.237.743,2.017,2.017,0,0,0,1.2.919l.532.072a1.987,1.987,0,0,0,1.009-.273Z"/>
<path class="c" d="M72.219,51.3a14.986,14.986,0,0,0-3.254-1.1,1.526,1.526,0,0,0-.8-.036A2.057,2.057,0,0,0,66.505,51.6a2.022,2.022,0,0,0,.2,1.541,1.972,1.972,0,0,0,1.2.919,13.242,13.242,0,0,1,2.632.832l-.478-.2.144.063a1.486,1.486,0,0,0,.743.237,1.8,1.8,0,0,0,1.478-.393,1.522,1.522,0,0,0,.515-.562,2.022,2.022,0,0,0,.2-1.541l-.2-.478a2.019,2.019,0,0,0-.717-.717Z"/>
<path class="c" d="M92.2,76.924A12.857,12.857,0,0,0,98.4,78.366a10.163,10.163,0,0,0,6.337-1.907,2,2,0,0,0,0-2.828,2.06,2.06,0,0,0-2.828,0c.684-.534-.074.019-.293.134-.171.09-.638.23-.028.033-.171.055-.337.13-.509.185-.217.07-.436.129-.658.18a5.007,5.007,0,0,0-.766.145c.024-.065.425-.048-.015,0-.14.013-.28.025-.42.034-.337.022-.674.03-1.012.028q-.453,0-.906-.032c-.138-.01-.277-.021-.415-.035-.079-.007-.158-.016-.236-.026q-.234-.028.155.021a3.869,3.869,0,0,1-1.33-.3c-.186-.055-.367-.122-.551-.185-.465-.159.4.193-.022,0-.229-.108-.453-.22-.676-.338A2,2,0,1,0,92.2,76.924Z"/>
<path class="c" d="M97.173,62.6a28.256,28.256,0,0,1,.659,3.014l-.072-.531a1.809,1.809,0,0,1,.011.416l.072-.532a1,1,0,0,1-.046.187l.2-.478a.883.883,0,0,1-.066.121l.312-.405a.691.691,0,0,1-.1.1l.405-.313a1.882,1.882,0,0,1-.239.126l.478-.2a1.723,1.723,0,0,1-.4.117l.532-.071a1.593,1.593,0,0,1-.378,0l.532.071c-.142-.019-.282-.054-.424-.073a1.516,1.516,0,0,0-.8-.036,1.492,1.492,0,0,0-.744.237,2,2,0,0,0-.717,2.737A1.913,1.913,0,0,0,97.586,68c.365.049.718.141,1.089.157a3.551,3.551,0,0,0,1.657-.4,2.489,2.489,0,0,0,1.351-1.629,3.9,3.9,0,0,0-.015-1.7c-.164-.971-.388-1.934-.638-2.886a2,2,0,0,0-2.46-1.4,2.03,2.03,0,0,0-1.2.919,2.1,2.1,0,0,0-.2,1.541Z"/>
<path class="c" d="M81.676,53.948c-.5,1.635-.176,5.4,2.923,5.718,4.095-.025,4.313-4.574,2.935-6.712C86.405,51.2,83.086,50.474,81.676,53.948Z"/>
<path class="c" d="M114.471,53.948c.5,1.635.175,5.4-2.923,5.718-4.1-.025-4.314-4.574-2.935-6.712C109.742,51.2,113.06,50.474,114.471,53.948Z"/>
</g>
</svg>