<!DOCTYPE svg PUBLIC "-//W3C//DTD SVG 1.1//EN" "http://www.w3.org/Graphics/SVG/1.1/DTD/svg11.dtd">
<!-- Uploaded to: SVG Repo, www.svgrepo.com, Transformed by: SVG Repo Mixer Tools -->
<svg fill="#000000" width="256px" height="256px" viewBox="0 0 24.00 24.00" id="send" data-name="Flat Line" xmlns="http://www.w3.org/2000/svg" class="icon flat-line">
<g id="SVGRepo_bgCarrier" stroke-width="0"/>
<g id="SVGRepo_tracerCarrier" stroke-linecap="round" stroke-linejoin="round"/>
<g id="SVGRepo_iconCarrier">
<path id="secondary" d="M5.44,4.15l14.65,7a1,1,0,0,1,0,1.8l-14.65,7A1,1,0,0,1,4.1,18.54l2.72-6.13a1.06,1.06,0,0,0,0-.82L4.1,5.46A1,1,0,0,1,5.44,4.15Z" style="fill: #2ca9bc; stroke-width:0.504;"/>
<path id="primary" d="M7,12h4M4.1,5.46l2.72,6.13a1.06,1.06,0,0,1,0,.82L4.1,18.54a1,1,0,0,0,1.34,1.31l14.65-7a1,1,0,0,0,0-1.8L5.44,4.15A1,1,0,0,0,4.1,5.46Z" style="fill: none; stroke: #000000; stroke-linecap: round; stroke-linejoin: round; stroke-width:0.504;"/>
</g>
</svg>